<svg width="1601" height="250" viewBox="0 0 1601 250" fill="none" xmlns="http://www.w3.org/2000/svg">
<path d="M452.2 200V60H479L556.4 164.6H550.8C550.267 160.467 549.8 156.467 549.4 152.6C549 148.6 548.6 144.6 548.2 140.6C547.933 136.467 547.667 132.267 547.4 128C547.267 123.6 547.133 119 547 114.2C546.867 109.267 546.8 103.933 546.8 98.2V60H576.2V200H549L470 94.4L477.6 94.6C478.267 101.533 478.8 107.467 479.2 112.4C479.733 117.2 480.133 121.4 480.4 125C480.667 128.6 480.867 131.733 481 134.4C481.267 137.067 481.4 139.6 481.4 142C481.533 144.4 481.6 146.933 481.6 149.6V200H452.2ZM658.752 202C647.285 202 637.285 199.667 628.752 195C620.218 190.333 613.552 183.933 608.752 175.8C603.952 167.667 601.552 158.333 601.552 147.8C601.552 139.667 602.885 132.2 605.552 125.4C608.218 118.6 611.952 112.733 616.752 107.8C621.552 102.733 627.218 98.8667 633.752 96.2C640.418 93.4 647.618 92 655.352 92C662.552 92 669.218 93.3333 675.352 96C681.485 98.5333 686.752 102.2 691.152 107C695.685 111.667 699.152 117.2 701.552 123.6C703.952 130 705.018 137 704.752 144.6L704.552 153.4H619.552L614.952 136H681.152L677.952 139.6V135.2C677.685 131.6 676.485 128.333 674.352 125.4C672.352 122.467 669.752 120.2 666.552 118.6C663.352 117 659.752 116.2 655.752 116.2C649.885 116.2 644.885 117.333 640.752 119.6C636.752 121.867 633.685 125.2 631.552 129.6C629.418 134 628.352 139.333 628.352 145.6C628.352 152 629.685 157.533 632.352 162.2C635.152 166.867 639.018 170.533 643.952 173.2C649.018 175.733 654.952 177 661.752 177C666.418 177 670.685 176.267 674.552 174.8C678.418 173.333 682.552 170.8 686.952 167.2L700.552 186.2C696.685 189.667 692.418 192.6 687.752 195C683.085 197.267 678.285 199 673.352 200.2C668.418 201.4 663.552 202 658.752 202ZM765.339 202C756.539 202 748.606 199.6 741.539 194.8C734.472 190 728.872 183.467 724.739 175.2C720.606 166.933 718.539 157.467 718.539 146.8C718.539 136.133 720.606 126.733 724.739 118.6C729.006 110.333 734.739 103.867 741.939 99.2C749.139 94.4 757.339 92 766.539 92C771.739 92 776.472 92.8 780.739 94.4C785.139 95.8667 788.939 97.9333 792.139 100.6C795.472 103.267 798.272 106.333 800.539 109.8C802.806 113.267 804.406 117 805.339 121L799.339 120V94.2H827.539V200H798.939V174.6L805.339 174C804.272 177.733 802.539 181.267 800.139 184.6C797.739 187.933 794.739 190.933 791.139 193.6C787.672 196.133 783.739 198.2 779.339 199.8C774.939 201.267 770.272 202 765.339 202ZM773.139 177.4C778.472 177.4 783.139 176.133 787.139 173.6C791.139 171.067 794.206 167.533 796.339 163C798.606 158.333 799.739 152.933 799.739 146.8C799.739 140.8 798.606 135.533 796.339 131C794.206 126.467 791.139 122.933 787.139 120.4C783.139 117.733 778.472 116.4 773.139 116.4C767.939 116.4 763.339 117.733 759.339 120.4C755.472 122.933 752.406 126.467 750.139 131C747.872 135.533 746.739 140.8 746.739 146.8C746.739 152.933 747.872 158.333 750.139 163C752.406 167.533 755.472 171.067 759.339 173.6C763.339 176.133 767.939 177.4 773.139 177.4ZM856.013 200V94.2H883.413L884.413 128.2L879.613 121.2C881.213 115.733 883.813 110.8 887.413 106.4C891.013 101.867 895.213 98.3333 900.013 95.8C904.946 93.2667 910.079 92 915.413 92C917.679 92 919.879 92.2 922.013 92.6C924.146 93 925.946 93.4667 927.413 94L919.813 125.2C918.213 124.4 916.279 123.733 914.013 123.2C911.746 122.533 909.413 122.2 907.013 122.2C903.813 122.2 900.813 122.8 898.013 124C895.346 125.067 893.013 126.667 891.013 128.8C889.013 130.8 887.413 133.2 886.213 136C885.146 138.8 884.613 141.867 884.613 145.2V200H856.013ZM1054.44 202C1045.77 202 1037.84 200.933 1030.64 198.8C1023.57 196.667 1017.24 193.533 1011.64 189.4C1006.17 185.267 1001.24 180.267 996.836 174.4L1015.64 153C1022.17 162.067 1028.64 168.267 1035.04 171.6C1041.57 174.8 1048.64 176.4 1056.24 176.4C1060.37 176.4 1064.04 175.867 1067.24 174.8C1070.57 173.6 1073.17 171.933 1075.04 169.8C1076.9 167.667 1077.84 165.133 1077.84 162.2C1077.84 160.067 1077.37 158.133 1076.44 156.4C1075.5 154.533 1074.17 152.933 1072.44 151.6C1070.7 150.133 1068.64 148.867 1066.24 147.8C1063.84 146.6 1061.17 145.6 1058.24 144.8C1055.3 143.867 1052.1 143.133 1048.64 142.6C1041.17 140.867 1034.64 138.8 1029.04 136.4C1023.44 133.867 1018.77 130.8 1015.04 127.2C1011.3 123.467 1008.5 119.267 1006.64 114.6C1004.9 109.933 1004.04 104.667 1004.04 98.8C1004.04 92.8 1005.37 87.2667 1008.04 82.2C1010.7 77 1014.37 72.5333 1019.04 68.8C1023.84 65.0667 1029.3 62.2 1035.44 60.2C1041.7 58.2 1048.3 57.2 1055.24 57.2C1063.77 57.2 1071.24 58.2 1077.64 60.2C1084.04 62.0667 1089.57 64.8 1094.24 68.4C1099.04 72 1103.04 76.4 1106.24 81.6L1087.24 100C1084.44 96.2667 1081.37 93.1333 1078.04 90.6C1074.84 88.0667 1071.3 86.2 1067.44 85C1063.7 83.6667 1059.84 83 1055.84 83C1051.44 83 1047.64 83.6 1044.44 84.8C1041.24 85.8667 1038.7 87.4667 1036.84 89.6C1035.1 91.7333 1034.24 94.3333 1034.24 97.4C1034.24 99.8 1034.84 101.933 1036.04 103.8C1037.24 105.667 1038.97 107.333 1041.24 108.8C1043.5 110.133 1046.24 111.333 1049.44 112.4C1052.64 113.467 1056.17 114.4 1060.04 115.2C1067.37 116.667 1073.97 118.6 1079.84 121C1085.7 123.4 1090.7 126.333 1094.84 129.8C1099.1 133.133 1102.37 137.133 1104.64 141.8C1106.9 146.333 1108.04 151.467 1108.04 157.2C1108.04 166.667 1105.77 174.733 1101.24 181.4C1096.7 188.067 1090.44 193.2 1082.44 196.8C1074.44 200.267 1065.1 202 1054.44 202ZM1180.41 202C1169.61 202 1159.94 199.667 1151.41 195C1143.01 190.2 1136.34 183.667 1131.41 175.4C1126.61 167.133 1124.21 157.667 1124.21 147C1124.21 136.333 1126.61 126.933 1131.41 118.8C1136.34 110.533 1143.01 104 1151.41 99.2C1159.94 94.4 1169.61 92 1180.41 92C1191.07 92 1200.61 94.4 1209.01 99.2C1217.54 104 1224.21 110.533 1229.01 118.8C1233.81 126.933 1236.21 136.333 1236.21 147C1236.21 157.667 1233.81 167.133 1229.01 175.4C1224.21 183.667 1217.54 190.2 1209.01 195C1200.61 199.667 1191.07 202 1180.41 202ZM1180.41 177.2C1185.61 177.2 1190.27 175.933 1194.41 173.4C1198.54 170.733 1201.74 167.133 1204.01 162.6C1206.41 157.933 1207.61 152.733 1207.61 147C1207.61 141.133 1206.41 135.933 1204.01 131.4C1201.74 126.733 1198.54 123.133 1194.41 120.6C1190.27 117.933 1185.61 116.6 1180.41 116.6C1175.07 116.6 1170.34 117.933 1166.21 120.6C1162.07 123.267 1158.81 126.867 1156.41 131.4C1154.01 135.933 1152.87 141.133 1153.01 147C1152.87 152.733 1154.01 157.933 1156.41 162.6C1158.81 167.133 1162.07 170.733 1166.21 173.4C1170.34 175.933 1175.07 177.2 1180.41 177.2ZM1303.58 202C1293.44 202 1284.38 199.6 1276.38 194.8C1268.38 190 1262.04 183.467 1257.38 175.2C1252.84 166.933 1250.58 157.533 1250.58 147C1250.58 136.6 1252.84 127.267 1257.38 119C1262.04 110.6 1268.38 104 1276.38 99.2C1284.38 94.4 1293.44 92 1303.58 92C1313.04 92 1321.71 93.7333 1329.58 97.2C1337.44 100.667 1343.58 105.467 1347.98 111.6L1332.38 130.4C1330.51 127.867 1328.18 125.6 1325.38 123.6C1322.58 121.467 1319.51 119.8 1316.18 118.6C1312.98 117.4 1309.64 116.8 1306.18 116.8C1300.71 116.8 1295.84 118.133 1291.58 120.8C1287.44 123.333 1284.18 126.867 1281.78 131.4C1279.38 135.933 1278.18 141.133 1278.18 147C1278.18 152.733 1279.38 157.867 1281.78 162.4C1284.31 166.8 1287.71 170.4 1291.98 173.2C1296.24 175.867 1301.04 177.2 1306.38 177.2C1309.84 177.2 1313.11 176.733 1316.18 175.8C1319.24 174.733 1322.11 173.2 1324.78 171.2C1327.58 169.2 1330.11 166.8 1332.38 164L1347.78 182.8C1343.24 188.533 1336.98 193.2 1328.98 196.8C1320.98 200.267 1312.51 202 1303.58 202ZM1368.37 200V94.2H1396.77V200H1368.37ZM1382.37 72.4C1376.91 72.4 1372.64 71.0667 1369.57 68.4C1366.51 65.7333 1364.97 61.9333 1364.97 57C1364.97 52.4667 1366.51 48.8 1369.57 46C1372.77 43.0667 1377.04 41.6 1382.37 41.6C1387.84 41.6 1392.11 43 1395.17 45.8C1398.24 48.4667 1399.77 52.2 1399.77 57C1399.77 61.6667 1398.17 65.4 1394.97 68.2C1391.91 71 1387.71 72.4 1382.37 72.4ZM1466.71 202C1457.91 202 1449.97 199.6 1442.91 194.8C1435.84 190 1430.24 183.467 1426.11 175.2C1421.97 166.933 1419.91 157.467 1419.91 146.8C1419.91 136.133 1421.97 126.733 1426.11 118.6C1430.37 110.333 1436.11 103.867 1443.31 99.2C1450.51 94.4 1458.71 92 1467.91 92C1473.11 92 1477.84 92.8 1482.11 94.4C1486.51 95.8667 1490.31 97.9333 1493.51 100.6C1496.84 103.267 1499.64 106.333 1501.91 109.8C1504.17 113.267 1505.77 117 1506.71 121L1500.71 120V94.2H1528.91V200H1500.31V174.6L1506.71 174C1505.64 177.733 1503.91 181.267 1501.51 184.6C1499.11 187.933 1496.11 190.933 1492.51 193.6C1489.04 196.133 1485.11 198.2 1480.71 199.8C1476.31 201.267 1471.64 202 1466.71 202ZM1474.51 177.4C1479.84 177.4 1484.51 176.133 1488.51 173.6C1492.51 171.067 1495.57 167.533 1497.71 163C1499.97 158.333 1501.11 152.933 1501.11 146.8C1501.11 140.8 1499.97 135.533 1497.71 131C1495.57 126.467 1492.51 122.933 1488.51 120.4C1484.51 117.733 1479.84 116.4 1474.51 116.4C1469.31 116.4 1464.71 117.733 1460.71 120.4C1456.84 122.933 1453.77 126.467 1451.51 131C1449.24 135.533 1448.11 140.8 1448.11 146.8C1448.11 152.933 1449.24 158.333 1451.51 163C1453.77 167.533 1456.84 171.067 1460.71 173.6C1464.71 176.133 1469.31 177.4 1474.51 177.4ZM1557.58 200V52H1585.98V200H1557.58Z" fill="black"/>
<path d="M107.137 208L18 124.5L107.137 41" stroke="#3D7FFF" stroke-width="35" stroke-linecap="round" stroke-linejoin="round"/>
<path d="M224.924 41L313 124.5L224.924 208" stroke="#3D7FFF" stroke-width="35" stroke-linecap="round" stroke-linejoin="round"/>
</svg>
